# xmcd
#
# Track frame offsets:
#	150
#	12172
#	24637
#	38512
#	53305
#	68322
#	90447
#	103647
#	116852
#	130695
#
# Disc length: 2044 seconds
#
# Revision: 1
# Processed by: cddbd v1.5.1PL0 Copyright (c) Steve Scherf et al.
# Submitted via: audiograbber 1.83.01
#
DISCID=6907fa0a
DTITLE=Various Artist - Basic Blues
DYEAR=1900
DGENRE=Blues
TTITLE0=John Lee Hooker - Boom Boom
TTITLE1=Bo Diddley - Bo Diddley
TTITLE2=Muddy Waters - I'm Ready
TTITLE3=Elmore James - Whose Muddy Shoes
TTITLE4=Bobby Bland - A Touch Of The Blues
TTITLE5=BB King - Chains and Things
TTITLE6=Clarence Gatemouth Brown - Depression Blues
TTITLE7=Memphis Minnie Mccoy - Weary Woman's Blues
TTITLE8=T Bone Walker - Party Girl
TTITLE9=Brownie McGhee - Brownie's New Blues
EXTD=ID3G: 0
EXTT0=
EXTT1=
EXTT2=
EXTT3=
EXTT4=
EXTT5=
EXTT6=
EXTT7=
EXTT8=
EXTT9=
PLAYORDER=
